<?xml version="1.0" standalone="no"?>
<!DOCTYPE svg PUBLIC "-//W3C//DTD SVG 20010904//EN"
 "http://www.w3.org/TR/2001/REC-SVG-20010904/DTD/svg10.dtd">
<svg version="1.0" xmlns="http://www.w3.org/2000/svg"
 width="512.000000pt" height="512.000000pt" viewBox="0 0 512.000000 512.000000"
 preserveAspectRatio="xMidYMid meet">
<metadata>
Created by potrace 1.11, written by Peter Selinger 2001-2013
</metadata>
<g transform="translate(0.000000,512.000000) scale(0.100000,-0.100000)"
fill="#000000" stroke="none">
<path d="M2493 5095 c-12 -16 -14 -16 -10 -2 9 24 -10 22 -23 -3 -6 -11 -15
-20 -21 -20 -6 0 -3 7 5 16 9 8 16 17 16 19 0 7 -76 1 -87 -8 -9 -6 -13 -5
-13 4 0 10 -3 10 -12 1 -10 -10 -14 -28 -17 -70 -1 -7 -5 -11 -10 -8 -5 3 -7
16 -3 28 4 16 2 19 -9 14 -8 -4 -6 -1 4 7 27 22 21 27 -32 27 -32 0 -55 -6
-65 -16 -20 -20 -20 -22 2 -20 18 1 18 -1 6 -48 -5 -22 -4 -27 5 -21 8 4 7 -5
-4 -24 -16 -32 -40 -49 -52 -38 -3 4 4 21 15 40 19 33 19 35 1 48 -22 15 -25
45 -6 52 6 2 9 7 6 11 -9 10 -141 -20 -149 -34 -6 -10 -8 -10 -12 0 -3 11 -78
-5 -220 -46 -12 -4 -20 -20 -24 -45 -9 -52 -20 -58 -16 -8 2 22 0 39 -6 39
-12 0 -22 -24 -22 -56 l0 -24 -20 20 c-24 24 -26 34 -5 26 8 -3 15 -1 15 4 0
6 -6 10 -13 10 -20 0 -57 -30 -57 -46 0 -8 -4 -14 -9 -14 -5 0 -7 9 -4 20 4
16 2 19 -10 14 -9 -3 -15 -11 -14 -17 1 -6 -10 -11 -26 -11 -15 1 -25 -1 -22
-4 8 -9 -37 -52 -54 -52 -11 0 -6 8 14 26 17 14 21 20 10 15 -39 -21 -55 -38
-49 -55 4 -9 1 -16 -6 -16 -7 0 -10 -6 -7 -14 4 -11 1 -11 -18 -2 -24 11 -25
29 0 20 9 -4 13 1 12 15 -2 28 -11 26 -35 -4 -12 -16 -29 -24 -43 -23 -45 3
-366 -192 -353 -214 4 -7 2 -8 -4 -4 -7 4 -12 2 -12 -3 0 -6 -4 -10 -8 -8 -13
4 -137 -98 -249 -206 -178 -172 -351 -402 -471 -627 -282 -528 -368 -1166
-236 -1760 183 -823 768 -1507 1557 -1819 464 -184 1001 -225 1497 -115 642
143 1203 529 1572 1084 88 133 199 346 254 488 24 62 26 75 13 84 -12 8 -11 9
2 5 13 -4 22 12 42 81 63 208 94 383 108 607 16 253 -14 556 -77 781 -33 118
-32 117 -33 130 -1 6 -11 16 -23 23 -15 7 -16 10 -4 6 14 -4 17 -1 12 11 -3 8
-6 20 -6 25 0 5 -5 9 -11 9 -5 0 -7 -4 -4 -10 3 -6 -1 -7 -9 -4 -9 3 -16 10
-16 14 0 8 -13 7 -75 -5 l-30 -6 25 15 c13 8 42 13 63 11 45 -3 54 8 28 34
-13 13 -27 18 -42 14 -16 -5 -20 -3 -14 6 4 7 18 11 31 8 22 -4 22 -3 10 27
-8 20 -21 32 -35 34 -14 2 -21 9 -17 17 3 8 0 16 -7 19 -7 2 -4 5 6 5 9 1 17
4 17 7 0 4 -18 45 -40 91 -34 71 -44 83 -60 79 -11 -3 -28 -8 -38 -11 -11 -3
-22 3 -31 18 -12 19 -12 20 0 11 8 -7 28 -9 46 -7 l31 5 -24 47 c-31 57 -37
63 -77 79 l-32 12 32 -5 32 -4 -32 47 c-17 26 -35 49 -39 50 -4 2 -8 8 -8 14
0 17 -84 127 -98 127 -6 1 -11 5 -10 10 4 14 -82 112 -202 229 -138 137 -145
142 -162 142 -9 0 -22 8 -29 17 -10 11 -10 14 -1 9 6 -4 12 -6 12 -4 0 8 -137
108 -148 108 -7 0 -12 5 -12 10 0 6 -4 10 -10 10 -5 0 -10 -7 -10 -15 0 -8 -4
-15 -9 -15 -4 0 -6 11 -3 25 3 17 -1 27 -13 31 -10 4 -40 22 -67 41 -28 18
-56 33 -64 33 -8 0 -14 4 -14 8 0 5 -11 14 -25 20 -15 7 -25 8 -25 2 0 -6 -4
-10 -10 -10 -5 0 -7 6 -4 13 4 12 -92 67 -117 67 -6 0 -18 7 -26 16 -12 11
-18 12 -23 4 -6 -9 -10 -9 -16 2 -14 21 -77 49 -89 37 -15 -15 -29 -10 -15 6
10 12 9 15 -6 16 -11 1 -25 1 -33 0 -8 -2 -10 2 -6 10 5 7 3 10 -4 8 -7 -3
-11 -7 -9 -11 4 -8 -32 -48 -44 -48 -5 0 -4 9 2 19 7 14 7 22 -2 27 -6 4 -9 3
-6 -2 3 -5 -5 -19 -18 -32 -26 -25 -32 -18 -9 12 16 21 11 36 -12 36 -10 0
-13 -6 -9 -17 4 -11 -2 -8 -14 7 -11 14 -20 30 -20 36 0 13 -44 34 -68 33 -12
0 -11 -3 6 -9 22 -9 31 -40 12 -40 -5 0 -10 5 -10 11 0 6 -7 8 -16 5 -10 -4
-25 1 -36 11 -14 13 -21 14 -30 5 -19 -19 -31 -14 -24 12 5 20 3 23 -14 19
-11 -3 -20 -1 -20 5 0 5 -7 13 -16 16 -12 5 -15 2 -10 -11 5 -16 5 -16 -8 1
-8 10 -19 15 -24 12 -6 -3 -12 -2 -14 3 -1 5 -30 12 -63 15 -58 7 -59 6 -32
-9 29 -17 37 -31 12 -21 -16 6 -17 -18 -2 -41 5 -8 3 -13 -3 -13 -6 0 -13 7
-17 16 -3 8 -12 13 -20 10 -9 -4 -11 -2 -7 6 5 7 2 9 -9 5 -11 -4 -14 -2 -10
8 4 11 10 12 24 5 15 -8 17 -7 13 5 -10 26 -52 22 -72 -6 -18 -26 -47 -24 -59
4 -9 20 -8 24 5 24 10 0 22 -4 28 -8 7 -6 16 -3 24 6 7 9 19 14 26 11 7 -3 16
0 20 6 5 7 -4 9 -25 6 -18 -3 -34 -1 -37 4 -3 5 -47 9 -97 8 -51 -1 -94 -1
-97 0 -3 1 -27 3 -54 3 -38 2 -52 -2 -63 -18z m-73 -12 c0 -3 -6 -3 -14 0 -7
3 -20 0 -27 -6 -11 -10 -11 -9 0 5 11 15 41 15 41 1z m-134 -18 c0 -14 -4 -25
-8 -25 -5 0 -8 -9 -8 -20 0 -17 -2 -19 -14 -8 -10 10 -11 18 -4 32 9 17 30 44
34 46 1 0 1 -11 0 -25z m-142 -30 c-4 -8 -10 -15 -16 -15 -5 0 -6 -10 -3 -21
5 -14 4 -19 -4 -15 -7 5 -9 1 -5 -8 3 -9 2 -16 -4 -16 -6 0 -8 -10 -5 -22 4
-19 3 -20 -7 -8 -10 13 -11 11 -7 -7 3 -13 -1 -24 -10 -27 -11 -5 -13 -2 -9
10 3 9 9 28 12 42 3 15 11 37 17 50 9 19 8 25 -3 33 -11 8 -9 9 9 4 16 -5 21
-4 17 4 -4 6 -1 11 8 11 10 0 13 -6 10 -15z m506 -4 c0 -5 21 -14 48 -20 26
-7 54 -16 62 -22 12 -8 10 -9 -7 -4 -14 4 -25 0 -31 -11 -8 -15 -11 -14 -30 6
-15 16 -28 21 -46 18 -28 -6 -55 15 -36 27 5 3 10 1 10 -5 0 -6 5 -8 10 -5 6
4 8 11 5 16 -4 5 -1 9 4 9 6 0 11 -4 11 -9z m315 -1 c5 -8 11 -7 21 1 12 9 13
9 9 -3 -4 -9 0 -18 9 -21 8 -3 17 1 20 9 4 10 2 12 -6 8 -6 -4 -8 -3 -5 2 9
15 87 4 81 -11 -3 -7 5 -20 18 -29 17 -12 18 -16 6 -16 -9 0 -19 7 -22 16 -5
13 -9 14 -21 4 -8 -7 -15 -19 -15 -26 0 -8 -10 -14 -22 -14 -23 1 -23 1 -3 17
16 13 17 15 3 10 -10 -4 -18 -2 -18 4 0 6 -5 7 -11 4 -5 -4 -18 3 -29 14 -10
12 -22 21 -26 20 -18 -3 -25 1 -19 11 8 13 22 13 30 0z m-793 -28 c-7 -2 -12
-12 -12 -23 0 -10 -4 -19 -10 -19 -12 0 -12 2 0 35 6 17 14 23 22 19 9 -6 9
-9 0 -12z m-310 -68 c-7 -34 -32 -61 -32 -34 0 6 5 8 10 5 10 -6 15 25 12 75
-1 21 1 22 8 8 6 -9 7 -32 2 -54z m168 56 c0 -5 -5 -10 -11 -10 -5 0 -7 5 -4
10 3 6 8 10 11 10 2 0 4 -4 4 -10z m35 -42 c-4 -18 -14 -44 -21 -58 l-14 -25
6 30 c6 32 27 85 32 85 2 0 0 -15 -3 -32z m420 16 c-28 -21 -55 -36 -55 -29 0
6 62 45 70 45 3 -1 -4 -8 -15 -16z m711 2 c10 -8 16 -18 11 -22 -4 -4 -7 -2
-7 4 0 7 -6 12 -14 12 -8 0 -18 5 -21 10 -9 15 8 12 31 -4z m54 -11 c0 -12
-19 -12 -23 0 -4 9 -1 12 9 8 7 -3 14 -7 14 -8z m40 -15 c6 -11 8 -20 6 -20
-3 0 -10 9 -16 20 -6 11 -8 20 -6 20 3 0 10 -9 16 -20z m-1147 -5 c-3 -9 -8
-14 -10 -11 -3 3 -2 9 2 15 9 16 15 13 8 -4z m652 5 c3 -5 1 -10 -4 -10 -6 0
-11 5 -11 10 0 6 2 10 4 10 3 0 8 -4 11 -10z m307 -12 c-7 -7 -12 -8 -12 -2 0
6 3 14 7 17 3 4 9 5 12 2 2 -3 -1 -11 -7 -17z m-413 3 c8 -5 9 -11 3 -15 -5
-3 -15 1 -22 9 -14 16 -3 20 19 6z m-698 -48 c-9 -16 -10 -16 -11 -1 0 9 3 25
7 35 7 16 8 17 11 1 2 -10 -1 -25 -7 -35z m1179 26 c0 -6 -4 -7 -10 -4 -5 3
-10 11 -10 16 0 6 5 7 10 4 6 -3 10 -11 10 -16z m31 4 c13 -16 12 -17 -3 -4
-17 13 -22 21 -14 21 2 0 10 -8 17 -17z m69 14 c0 -2 -10 -12 -22 -23 l-23
-19 19 23 c18 21 26 27 26 19z m-880 -17 c-10 -7 45 -10 175 -9 105 1 211 -2
238 -6 41 -6 46 -5 41 9 -3 9 -1 16 5 16 6 0 11 -7 11 -15 0 -8 6 -15 13 -16
22 -2 61 -9 137 -24 41 -8 86 -17 100 -19 14 -3 55 -14 92 -24 65 -20 66 -20
71 -1 3 10 11 19 17 19 10 0 10 -4 0 -15 -7 -9 -11 -17 -9 -18 9 -8 79 -37
139 -60 36 -13 93 -38 127 -56 34 -17 69 -31 78 -31 8 0 15 -4 15 -8 0 -4 20
-18 44 -29 61 -30 175 -104 285 -186 86 -63 311 -261 320 -280 9 -21 104 -122
113 -119 5 1 7 -2 4 -7 -8 -13 87 -138 101 -134 12 4 73 -24 73 -33 0 -2 -9 0
-19 6 -27 14 -54 13 -49 -2 6 -16 89 -29 104 -17 7 5 11 3 11 -6 0 -14 -26
-20 -70 -17 -17 2 -17 0 3 -28 17 -23 27 -29 45 -24 13 3 35 -1 52 -10 l28
-17 -47 3 c-27 2 -48 2 -48 1 0 -1 5 -13 11 -27 10 -22 17 -24 60 -22 27 2 49
-1 49 -6 0 -6 7 -7 15 -4 42 17 48 17 26 1 -19 -14 -30 -16 -50 -9 -14 5 -39
7 -55 4 -26 -4 -27 -6 -13 -19 10 -7 17 -20 17 -27 0 -8 10 -14 23 -14 13 0
17 -3 11 -8 -15 -10 -11 -28 20 -95 14 -32 26 -62 26 -67 0 -5 15 -14 33 -20
24 -7 25 -9 7 -7 l-26 3 37 -105 c51 -143 74 -238 104 -427 23 -138 26 -187
24 -368 -1 -156 2 -210 11 -216 9 -6 8 -10 -4 -17 -12 -7 -22 -41 -36 -124
-72 -441 -249 -816 -552 -1166 -320 -370 -776 -642 -1250 -747 -352 -77 -755
-73 -1068 11 -30 8 -66 16 -80 19 -59 12 -332 112 -365 134 -5 4 -54 30 -108
59 -415 220 -754 563 -980 991 -106 201 -177 408 -224 650 -35 181 -44 550
-19 733 53 376 170 688 378 999 116 174 288 368 426 482 40 33 58 55 54 65 -4
10 -1 13 11 8 9 -3 30 5 51 21 19 15 60 44 90 65 31 21 56 46 56 55 0 9 5 24
10 32 8 11 9 7 4 -14 -4 -16 -3 -27 2 -25 53 23 223 127 224 137 0 9 7 11 19
7 13 -4 27 2 42 17 12 13 18 17 14 9 -6 -10 -2 -11 16 -6 45 14 54 23 66 72
l12 48 -5 -42 c-4 -26 -2 -43 4 -43 28 0 42 15 43 44 2 30 2 30 6 4 2 -16 6
-28 7 -28 2 0 29 9 62 21 99 34 291 78 411 94 63 8 122 19 131 24 22 13 41 14
22 1z m-793 -17 c-14 -17 -13 -18 14 -19 29 -1 39 10 17 19 -10 4 -10 6 -1 6
18 1 26 -18 14 -33 -6 -7 -8 -16 -5 -19 11 -10 14 -98 4 -92 -6 3 -10 26 -10
51 0 24 -5 44 -11 44 -5 0 -7 5 -4 10 9 15 -2 12 -30 -6 -29 -19 -34 -40 -6
-25 15 8 20 7 25 -6 10 -24 2 -26 -38 -9 -20 8 -34 11 -31 7 2 -5 -1 -14 -9
-20 -11 -9 -15 -9 -19 1 -5 16 10 48 24 48 6 0 22 14 36 30 13 17 30 30 35 30
6 0 4 -8 -5 -17z m129 6 c3 -6 1 -16 -6 -22 -10 -9 -11 -9 -5 2 4 8 2 17 -6
22 -9 6 -10 9 -2 9 6 0 15 -5 19 -11z m-60 -47 c-11 -10 -15 4 -8 28 l7 25 3
-23 c2 -13 1 -26 -2 -30z m1660 26 c4 -7 3 -8 -4 -4 -8 4 -12 0 -12 -10 0 -13
-3 -15 -11 -7 -12 12 -4 33 11 33 5 0 12 -5 16 -12z m-1493 -23 c-3 -9 -8 -14
-10 -11 -3 3 -2 9 2 15 9 16 15 13 8 -4z m-113 -5 c0 -5 -2 -10 -4 -10 -3 0
-8 5 -11 10 -3 6 -1 10 4 10 6 0 11 -4 11 -10z m1797 -16 c-3 -3 -12 -4 -19
-1 -8 3 -5 6 6 6 11 1 17 -2 13 -5z m-92 -24 c3 -6 -1 -7 -9 -4 -18 7 -21 14
-7 14 6 0 13 -4 16 -10z m-2009 -51 c4 -7 9 -8 17 0 7 7 16 7 29 0 10 -6 28
-7 38 -4 25 8 25 -6 1 -33 -10 -12 -29 -21 -42 -21 -24 2 -24 2 -1 6 12 2 22
8 22 13 0 12 -77 5 -94 -9 -12 -10 -14 -8 -9 11 9 40 12 48 22 48 5 0 13 -5
17 -11z m2325 -20 c-23 -9 -41 -5 -41 10 0 4 14 5 32 3 31 -5 31 -5 9 -13z
m107 -3 c-2 -1 -12 -8 -23 -16 -19 -14 -19 -14 -6 3 12 15 11 17 -2 17 -9 0
-22 -9 -31 -21 -8 -12 -26 -27 -41 -35 -35 -18 -44 -18 -19 1 14 11 16 15 4
15 -12 0 -11 4 4 15 10 8 22 12 26 10 4 -3 15 4 25 15 14 15 21 17 41 8 13 -6
23 -12 22 -12z m-2511 8 c-3 -3 -12 -4 -19 -1 -8 3 -5 6 6 6 11 1 17 -2 13 -5z
m243 -9 c7 -9 8 -15 2 -15 -5 0 -12 7 -16 15 -3 8 -4 15 -2 15 2 0 9 -7 16
-15z m-210 -5 c0 -5 -2 -10 -4 -10 -3 0 -8 5 -11 10 -3 6 -1 10 4 10 6 0 11
-4 11 -10z m180 0 c0 -5 -2 -10 -4 -10 -3 0 -8 5 -11 10 -3 6 -1 10 4 10 6 0
11 -4 11 -10z m-215 -14 c18 -13 18 -14 -8 -9 -15 3 -27 9 -27 14 0 13 13 11
35 -5z m2330 3 c11 -16 1 -19 -13 -3 -7 8 -8 14 -3 14 5 0 13 -5 16 -11z
m-2410 -9 c-3 -5 -1 -10 5 -10 6 0 8 -5 4 -11 -4 -7 -10 -7 -16 -1 -9 9 -3 32
8 32 3 0 2 -4 -1 -10z m2452 4 c-3 -3 -12 -4 -19 -1 -8 3 -5 6 6 6 11 1 17 -2
13 -5z m-2527 -38 c0 -2 -7 -7 -16 -10 -8 -3 -12 -2 -9 4 6 10 25 14 25 6z
m193 -11 c-3 -9 -8 -14 -10 -11 -3 3 -2 9 2 15 9 16 15 13 8 -4z m77 -21 c0
-8 -19 -13 -24 -6 -3 5 1 9 9 9 8 0 15 -2 15 -3z m-177 -19 c-3 -9 -8 -14 -10
-11 -3 3 -2 9 2 15 9 16 15 13 8 -4z m2657 -1 c0 -2 -7 -4 -15 -4 -8 0 -15 4
-15 10 0 5 7 7 15 4 8 -4 15 -8 15 -10z m-2785 -4 c3 -5 -3 -10 -15 -10 -12 0
-18 5 -15 10 3 6 10 10 15 10 5 0 12 -4 15 -10z m38 -17 c-5 -12 -7 -12 -14
-1 -13 20 -11 28 5 22 8 -3 12 -12 9 -21z m2807 24 c0 -2 -10 -12 -22 -23
l-23 -19 19 23 c18 21 26 27 26 19z m-176 -31 c-3 -8 -13 -17 -22 -21 -13 -5
-13 -2 3 15 21 24 26 25 19 6z m91 4 c-3 -5 -14 -10 -23 -9 -14 0 -13 2 3 9
27 11 27 11 20 0z m-2811 -35 c-4 -8 -13 -15 -20 -15 -12 0 -12 3 -2 15 17 19
29 19 22 0z m-54 -109 c0 -3 -4 -8 -10 -11 -5 -3 -10 -1 -10 4 0 6 5 11 10 11
6 0 10 -2 10 -4z m-82 -71 c-3 -3 -9 2 -12 12 -6 14 -5 15 5 6 7 -7 10 -15 7
-18z m3545 -252 c-7 -2 -19 -2 -25 0 -7 3 -2 5 12 5 14 0 19 -2 13 -5z m-43
-7 c0 -2 -9 -6 -20 -9 -11 -3 -18 -1 -14 4 5 9 34 13 34 5z m30 -86 c8 -5 11
-10 5 -10 -5 0 -17 5 -25 10 -8 5 -10 10 -5 10 6 0 17 -5 25 -10z m35 -40 c17
-4 23 -9 15 -10 -8 -1 -27 -4 -41 -6 -16 -3 -31 2 -39 11 -11 13 -9 15 11 14
13 -1 38 -5 54 -9z m-2 -77 c-7 -2 -21 -2 -30 0 -10 3 -4 5 12 5 17 0 24 -2
18 -5z m172 -53 c52 -24 25 -24 -40 0 -35 13 -43 18 -25 18 14 1 43 -8 65 -18z
m70 -30 c3 -5 2 -10 -4 -10 -5 0 -13 5 -16 10 -3 6 -2 10 4 10 5 0 13 -4 16
-10z m15 -170 c22 14 33 12 18 -3 -8 -9 -36 -14 -78 -15 -58 0 -60 1 -23 7 24
4 46 10 50 14 3 4 9 3 13 -2 3 -6 11 -6 20 -1z m75 -50 c-11 -4 -47 -6 -80 -3
-42 2 -55 1 -45 -6 12 -8 11 -10 -7 -9 -12 1 -19 7 -16 14 3 9 31 13 86 12 50
0 74 -3 62 -8z m-120 -58 c-3 -3 -11 0 -18 7 -9 10 -8 11 6 5 10 -3 15 -9 12
-12z m35 -56 c0 -2 -7 -7 -16 -10 -8 -3 -12 -2 -9 4 6 10 25 14 25 6z m94 -5
c3 -5 0 -11 -8 -14 -15 -6 -26 1 -26 15 0 11 27 10 34 -1z m-37 -76 c0 -11 -4
-12 -14 -4 -7 6 -13 13 -13 15 0 2 6 4 13 4 8 0 14 -7 14 -15z m40 -1 c-3 -3
-12 -4 -19 -1 -8 3 -5 6 6 6 11 1 17 -2 13 -5z m64 -51 c13 -17 13 -17 -6 -3
-11 8 -22 16 -24 17 -2 2 0 3 6 3 6 0 17 -8 24 -17z m-61 -53 c0 -5 -5 -10
-11 -10 -5 0 -7 5 -4 10 3 6 8 10 11 10 2 0 4 -4 4 -10z m-39 -57 c13 -16 12
-17 -3 -4 -10 7 -18 15 -18 17 0 8 8 3 21 -13z"/>
<path d="M2700 4990 c0 -5 5 -10 10 -10 6 0 10 5 10 10 0 6 -4 10 -10 10 -5 0
-10 -4 -10 -10z"/>
<path d="M2450 4692 c-25 -1 -98 -9 -163 -17 -66 -8 -123 -15 -129 -15 -5 0
-7 -4 -4 -9 3 -4 -6 -6 -21 -3 -16 3 -24 1 -20 -5 4 -6 23 -14 43 -18 27 -5
34 -9 25 -18 -8 -8 -14 -8 -23 1 -9 9 -16 8 -32 -6 -18 -16 -19 -16 -13 0 3
10 3 17 -1 16 -4 -1 -16 3 -26 7 -13 6 -21 4 -24 -4 -3 -8 -8 -9 -16 -2 -14
12 -99 -7 -90 -20 3 -5 13 -5 24 1 25 13 53 13 44 -1 -4 -7 0 -9 12 -5 11 3
26 1 34 -4 12 -7 8 -10 -15 -10 -59 -2 -111 -11 -170 -30 -48 -15 -62 -16 -69
-6 -9 14 -38 5 -171 -53 -81 -36 -225 -124 -225 -139 0 -7 -5 -10 -11 -6 -11
6 -123 -65 -115 -73 6 -6 46 20 46 29 0 5 4 8 8 8 5 0 7 -13 4 -30 -4 -30 -16
-39 -27 -20 -3 6 -15 6 -29 0 -13 -5 -27 -6 -31 -2 -3 3 -3 -1 1 -11 5 -13 1
-17 -16 -17 -50 0 -324 -276 -430 -434 l-33 -49 56 32 c32 18 57 28 57 22 0
-6 -6 -11 -12 -11 -19 -1 -121 -64 -119 -73 1 -5 -4 -14 -12 -20 -42 -33 -189
-344 -237 -500 -121 -391 -127 -813 -19 -1217 54 -200 174 -456 298 -635 91
-132 117 -163 266 -311 177 -176 337 -290 559 -398 408 -198 819 -260 1276
-192 l95 15 57 59 c32 33 58 57 58 54 0 -4 -24 -31 -52 -60 -44 -45 -49 -53
-28 -47 14 4 39 10 55 15 158 43 398 138 422 167 8 10 12 12 8 6 -10 -20 9
-15 49 12 20 14 39 25 42 25 3 0 30 16 60 35 30 19 57 35 60 35 2 0 58 40 124
90 195 147 374 337 498 530 128 196 245 464 293 669 48 203 77 572 47 593 -9
7 -10 11 -1 14 11 5 10 54 -4 154 -4 25 -6 48 -5 52 8 35 -78 364 -93 361 -6
-1 -19 -4 -30 -8 -11 -3 -8 1 8 10 15 8 27 18 27 21 0 20 -94 224 -103 224 -6
0 -8 3 -4 6 7 8 -71 164 -82 164 -4 0 -8 6 -8 13 0 17 -33 67 -44 67 -5 0 -8
3 -7 8 0 4 -2 15 -7 25 -6 14 -10 15 -23 5 -13 -11 -14 -10 -8 10 5 16 3 24
-8 28 -9 3 -16 13 -16 21 0 24 -87 129 -195 237 -142 142 -179 176 -192 176
-6 0 -13 4 -15 8 -6 17 -91 71 -101 65 -5 -3 -7 -1 -4 5 8 12 -149 111 -273
172 -162 79 -392 154 -574 186 -75 13 -353 34 -406 31 -14 -1 -45 -3 -70 -5z
m-215 -42 c-3 -5 -12 -10 -18 -10 -7 0 -6 4 3 10 19 12 23 12 15 0z m30 -40
c3 -6 -4 -10 -17 -10 -18 0 -20 2 -8 10 19 12 18 12 25 0z m-45 -20 c0 -5 -5
-10 -11 -10 -5 0 -7 5 -4 10 3 6 8 10 11 10 2 0 4 -4 4 -10z m795 -10 c-3 -5
-12 -10 -18 -10 -7 0 -6 4 3 10 19 12 23 12 15 0z m-960 -28 c-3 -3 -11 0 -18
7 -9 10 -8 11 6 5 10 -3 15 -9 12 -12z m-61 -3 c-4 -7 0 -9 14 -5 11 4 23 2
27 -4 4 -6 -5 -10 -22 -11 -15 0 -48 -2 -72 -4 -38 -3 -41 -2 -25 10 10 7 24
11 30 8 7 -3 21 0 31 6 23 13 26 13 17 0z m1242 -16 c-10 -10 -19 5 -10 18 6
11 8 11 12 0 2 -7 1 -15 -2 -18z m-1441 -3 c-4 -6 6 -10 22 -11 16 0 22 -3 13
-6 -8 -3 -17 -9 -20 -13 -3 -4 -18 -10 -35 -14 -27 -6 -28 -5 -10 6 12 7 19
21 17 31 -2 9 2 17 8 17 6 0 8 -4 5 -10z m95 -4 c0 -9 -30 -14 -35 -6 -4 6 3
10 14 10 12 0 21 -2 21 -4z m325 -16 c3 -5 2 -10 -4 -10 -5 0 -13 5 -16 10 -3
6 -2 10 4 10 5 0 13 -4 16 -10z m-315 -25 c-18 -19 -27 -22 -42 -14 -27 14
-33 5 -11 -16 12 -12 13 -17 4 -14 -24 8 -37 37 -24 50 9 9 16 9 27 0 12 -10
20 -10 38 3 32 23 35 20 8 -9z m93 18 c3 -5 -6 -9 -19 -9 -13 -1 -21 2 -18 7
6 11 31 12 37 2z m42 -3 c3 -6 -1 -7 -9 -4 -18 7 -21 14 -7 14 6 0 13 -4 16
-10z m-225 -40 c0 -5 -7 -7 -15 -4 -8 4 -15 8 -15 10 0 2 7 4 15 4 8 0 15 -4
15 -10z m1245 0 c-3 -5 -10 -10 -16 -10 -5 0 -9 5 -9 10 0 6 7 10 16 10 8 0
12 -4 9 -10z m395 7 c0 -2 -10 -12 -22 -23 l-23 -19 19 23 c18 21 26 27 26 19z
m-1505 -17 c3 -6 -1 -7 -9 -4 -18 7 -21 14 -7 14 6 0 13 -4 16 -10z m1571 -25
c1 -8 -1 -15 -6 -15 -10 0 -20 26 -13 34 8 8 16 -1 19 -19z m-45 -15 c5 0 9
-5 9 -11 0 -8 -4 -9 -13 0 -8 6 -16 8 -20 5 -3 -3 -3 5 1 18 5 18 7 19 10 6 2
-10 8 -18 13 -18z m-1594 14 c-3 -3 -12 -4 -19 -1 -8 3 -5 6 6 6 11 1 17 -2
13 -5z m63 -4 c13 -9 13 -10 0 -9 -8 0 -24 4 -35 9 l-20 9 20 0 c11 0 27 -4
35 -9z m-140 -4 c0 -3 -4 -8 -10 -11 -5 -3 -10 -1 -10 4 0 6 5 11 10 11 6 0
10 -2 10 -4z m247 -2 c-3 -3 -12 -4 -19 -1 -8 3 -5 6 6 6 11 1 17 -2 13 -5z
m1359 -54 c8 0 12 -5 8 -11 -4 -8 -9 -8 -17 0 -15 15 -30 14 -21 -1 4 -7 3 -8
-5 -4 -6 4 -8 12 -5 18 5 8 1 9 -11 4 -15 -5 -16 -4 -5 8 11 14 14 14 27 1 8
-8 21 -15 29 -15z m-506 0 c0 -5 -5 -10 -11 -10 -5 0 -7 5 -4 10 3 6 8 10 11
10 2 0 4 -4 4 -10z m-90 -14 c0 -2 -8 -10 -17 -17 -16 -13 -17 -12 -4 4 13 16
21 21 21 13z m130 -15 c0 -5 -7 -12 -16 -15 -14 -5 -15 -4 -4 9 14 17 20 19
20 6z m-882 -26 c-3 -3 -9 2 -12 12 -6 14 -5 15 5 6 7 -7 10 -15 7 -18z m832
15 c13 -8 13 -10 -2 -10 -9 0 -20 5 -23 10 -8 13 5 13 25 0z m190 -4 c0 -3 -4
-8 -10 -11 -5 -3 -10 -1 -10 4 0 6 5 11 10 11 6 0 10 -2 10 -4z m325 -24 c-3
-3 -11 0 -18 7 -9 10 -8 11 6 5 10 -3 15 -9 12 -12z m-1462 -4 c-2 -5 -10 -8
-18 -8 -8 0 -16 3 -18 8 -3 4 5 7 18 7 13 0 21 -3 18 -7z m1527 -13 c-13 -14
-26 -23 -28 -20 -7 6 29 44 42 44 5 1 -1 -10 -14 -24z m-553 9 c-3 -3 -12 -4
-19 -1 -8 3 -5 6 6 6 11 1 17 -2 13 -5z m143 -4 c0 -5 -5 -10 -11 -10 -5 0 -7
5 -4 10 3 6 8 10 11 10 2 0 4 -4 4 -10z m365 -30 c3 -5 -9 -17 -27 -26 l-33
-17 25 26 c30 30 28 29 35 17z m135 -5 c-7 -8 -18 -15 -24 -15 -6 0 -2 7 8 15
25 19 32 19 16 0z m-1530 -21 c0 -2 -9 0 -20 6 -11 6 -20 13 -20 16 0 2 9 0
20 -6 11 -6 20 -13 20 -16z m1210 17 c0 -5 -9 -11 -21 -14 -16 -4 -18 -3 -8 9
13 16 29 19 29 5z m275 -11 c-3 -5 -11 -10 -16 -10 -6 0 -7 5 -4 10 3 6 11 10
16 10 6 0 7 -4 4 -10z m-2225 -20 c0 -5 -2 -10 -4 -10 -3 0 -8 5 -11 10 -3 6
-1 10 4 10 6 0 11 -4 11 -10z m127 4 c-3 -3 -12 -4 -19 -1 -8 3 -5 6 6 6 11 1
17 -2 13 -5z m1363 -8 c0 -3 -4 -8 -10 -11 -5 -3 -10 -1 -10 4 0 6 5 11 10 11
6 0 10 -2 10 -4z m1130 0 c0 -2 -7 -9 -15 -16 -13 -11 -14 -10 -9 4 5 14 24
23 24 12z m-2560 -10 c0 -2 -7 -7 -16 -10 -8 -3 -12 -2 -9 4 6 10 25 14 25 6z
m2442 -38 c-8 -8 -9 -4 -5 13 4 13 8 18 11 10 2 -7 -1 -18 -6 -23z m72 16 c3
-9 2 -12 -5 -9 -6 4 -13 -2 -16 -14 -3 -12 -9 -21 -14 -21 -5 0 -3 14 6 30 18
34 21 36 29 14z m-1789 -4 c3 -5 2 -10 -4 -10 -5 0 -13 5 -16 10 -3 6 -2 10 4
10 5 0 13 -4 16 -10z m1085 0 c0 -5 -5 -10 -11 -10 -5 0 -7 5 -4 10 3 6 8 10
11 10 2 0 4 -4 4 -10z m165 -4 c-11 -8 -24 -12 -28 -9 -11 7 12 23 32 23 11 0
9 -4 -4 -14z m390 -24 c0 -10 6 -16 15 -14 8 2 12 0 8 -4 -4 -4 -2 -14 5 -23
10 -14 10 -14 -4 -4 -9 7 -19 10 -22 6 -4 -3 -8 0 -8 8 -1 8 -3 24 -4 37 -1
12 0 20 4 17 3 -4 6 -14 6 -23z m-1750 -15 c-11 -6 -21 -5 -28 3 -9 8 -7 9 7
4 13 -5 17 -4 12 4 -5 8 -2 10 10 5 15 -6 15 -7 -1 -16z m1302 8 c0 -8 -4 -12
-9 -9 -5 3 -6 10 -3 15 9 13 12 11 12 -6z m-1402 -5 c3 -6 -1 -7 -9 -4 -18 7
-21 14 -7 14 6 0 13 -4 16 -10z m348 -7 c-7 -2 -19 -2 -25 0 -7 3 -2 5 12 5
14 0 19 -2 13 -5z m1027 3 c0 -2 -7 -9 -15 -16 -13 -11 -14 -10 -9 4 5 14 24
23 24 12z m50 -20 c0 -3 -4 -8 -10 -11 -5 -3 -10 -1 -10 4 0 6 5 11 10 11 6 0
10 -2 10 -4z m740 1 c0 -2 -10 -12 -22 -23 l-23 -19 19 23 c18 21 26 27 26 19z
m-770 -11 c0 -2 -7 -7 -16 -10 -8 -3 -12 -2 -9 4 6 10 25 14 25 6z m457 -26
c-2 -24 -32 -18 -33 7 -1 15 4 19 17 16 10 -3 17 -13 16 -23z m78 11 c-3 -6
-11 -11 -17 -11 -6 0 -6 6 2 15 14 17 26 13 15 -4z m138 -20 c3 -13 1 -18 -9
-14 -7 2 -10 11 -7 19 7 19 10 18 16 -5z m-765 -12 c-20 -13 -28 -11 -22 5 3
8 12 12 21 9 12 -5 12 -7 1 -14z m-1332 -36 l2 -24 -19 22 c-23 27 -23 25 -1
25 11 0 18 -9 18 -23z m2058 3 c-3 -9 -10 -16 -15 -16 -5 0 -4 9 3 20 14 22
21 20 12 -4z m-769 -2 c-9 -9 -19 -13 -23 -10 -3 4 0 11 8 16 24 15 33 11 15
-6z m843 2 c-2 -1 -12 -8 -22 -16 -18 -14 -19 -14 -7 8 7 12 17 20 22 16 6 -3
9 -7 7 -8z m-298 -16 c0 -5 -2 -10 -4 -10 -3 0 -8 5 -11 10 -3 6 -1 10 4 10 6
0 11 -4 11 -10z m174 -2 c-3 -4 -12 -8 -20 -8 -8 0 -14 4 -14 8 0 4 9 8 19 8
11 0 17 -4 15 -8z m194 -8 c-7 -11 -17 -20 -22 -20 -5 0 -1 9 9 20 10 11 20
20 22 20 2 0 -2 -9 -9 -20z m74 -2 c-7 -7 -12 -8 -12 -2 0 6 3 14 7 17 3 4 9
5 12 2 2 -3 -1 -11 -7 -17z m-1092 -13 c-7 -8 -18 -15 -24 -15 -6 0 -2 7 8 15
25 19 32 19 16 0z m540 0 c-7 -9 -15 -13 -19 -10 -3 3 1 10 9 15 21 14 24 12
10 -5z m210 1 c0 -3 -4 -8 -10 -11 -5 -3 -10 -1 -10 4 0 6 5 11 10 11 6 0 10
-2 10 -4z m-335 -26 c-3 -5 -16 -10 -28 -9 -21 0 -21 1 -2 9 28 12 37 12 30 0z
m139 -4 c-5 -14 -34 -31 -34 -20 0 8 24 33 32 34 4 0 5 -6 2 -14z m260 -11 c3
-9 0 -15 -9 -15 -9 0 -12 6 -9 15 4 8 7 15 9 15 2 0 5 -7 9 -15z m-884 -15 c0
-5 -5 -10 -11 -10 -5 0 -7 5 -4 10 3 6 8 10 11 10 2 0 4 -4 4 -10z m564 -46
c3 -8 2 -12 -4 -9 -6 3 -10 10 -10 16 0 14 7 11 14 -7z m-2228 -16 c4 -7 3 -8
-5 -4 -6 4 -14 1 -17 -7 -5 -15 -34 -19 -34 -5 0 7 20 18 47 27 1 1 5 -4 9
-11z m2937 -8 c-10 -11 -19 -20 -21 -20 -1 0 2 9 8 20 6 11 15 20 20 20 6 0 2
-9 -7 -20z m-2731 -22 c-8 -8 -9 -4 -5 13 4 13 8 18 11 10 2 -7 -1 -18 -6 -23z
m1993 23 c-3 -5 -1 -12 5 -16 5 -3 10 -1 10 6 0 7 3 10 6 7 3 -4 -2 -19 -11
-35 -13 -23 -15 -24 -12 -6 3 13 1 26 -4 29 -9 5 -3 24 7 24 3 0 3 -4 -1 -9z
m69 1 c3 -5 -1 -9 -9 -9 -8 0 -12 4 -9 9 3 4 7 8 9 8 2 0 6 -4 9 -8z m101 -10
c-3 -3 -11 0 -18 7 -9 10 -8 11 6 5 10 -3 15 -9 12 -12z m-2765 -1 c0 -6 -4
-13 -10 -16 -5 -3 -10 1 -10 9 0 9 5 16 10 16 6 0 10 -4 10 -9z m235 -21 c3
-5 1 -10 -4 -10 -6 0 -11 5 -11 10 0 6 2 10 4 10 3 0 8 -4 11 -10z m1704 -19
c-13 -11 -28 -20 -32 -21 -4 0 5 11 20 24 15 13 30 23 32 20 2 -2 -7 -12 -20
-23z m-1489 9 c0 -5 -5 -10 -11 -10 -5 0 -7 5 -4 10 3 6 8 10 11 10 2 0 4 -4
4 -10z m2415 0 c-3 -5 -11 -10 -16 -10 -6 0 -7 5 -4 10 3 6 11 10 16 10 6 0 7
-4 4 -10z m-2455 -10 c0 -5 -8 -10 -17 -10 -15 0 -16 2 -3 10 19 12 20 12 20
0z m40 -14 c0 -3 -4 -8 -10 -11 -5 -3 -10 -1 -10 4 0 6 5 11 10 11 6 0 10 -2
10 -4z m2850 0 c0 -2 -8 -10 -17 -17 -16 -13 -17 -12 -4 4 13 16 21 21 21 13z
m-840 -10 c0 -2 -8 -10 -17 -17 -16 -13 -17 -12 -4 4 13 16 21 21 21 13z
m-2460 -16 c0 -5 -4 -10 -10 -10 -5 0 -10 5 -10 10 0 6 5 10 10 10 6 0 10 -4
10 -10z m-44 -15 c-11 -8 -25 -15 -30 -15 -6 1 0 7 14 15 32 19 40 18 16 0z
m1092 6 c11 -7 10 -9 -3 -14 -9 -4 -14 -3 -10 2 3 5 -1 12 -7 14 -7 3 -8 6 -3
6 6 0 16 -3 23 -8z m-618 -11 c-8 -5 -22 -10 -30 -10 -13 0 -13 1 0 10 8 5 22
10 30 10 13 0 13 -1 0 -10z m2954 -5 c3 -8 1 -15 -4 -15 -6 0 -10 5 -10 11 0
5 -4 7 -10 4 -5 -3 -10 -1 -10 4 0 17 27 13 34 -4z m-733 -28 c-13 -13 -26 -3
-16 12 3 6 11 8 17 5 6 -4 6 -10 -1 -17z m-2215 4 c-4 -5 0 -11 6 -14 7 -2 -4
-4 -24 -4 -44 1 -47 4 -15 17 29 12 39 12 33 1z m2908 -13 c-3 -4 -9 -8 -15
-8 -5 0 -9 4 -9 8 0 5 7 9 15 9 8 0 12 -4 9 -9z m-1414 -13 c-7 -9 -15 -13
-19 -10 -3 3 1 10 9 15 21 14 24 12 10 -5z m454 -9 c-3 -8 -13 -17 -22 -21
-13 -5 -13 -2 3 15 21 24 26 25 19 6z m701 8 c13 -5 14 -8 3 -15 -19 -13 -28
-11 -28 6 0 17 2 18 25 9z m248 -35 c5 -3 -3 -9 -17 -11 -15 -3 -24 -1 -23 6
3 15 20 27 27 18 3 -4 9 -10 13 -13z m-2353 -29 c0 -5 -8 -10 -17 -10 -15 0
-16 2 -3 10 19 12 20 12 20 0z m2068 -25 c-3 -3 -9 2 -12 12 -6 14 -5 15 5 6
7 -7 10 -15 7 -18z m-3151 -8 c0 -7 -10 -14 -21 -14 -21 -2 -21 -2 -2 13 24
17 23 17 23 1z m2417 -2 c-4 -8 -8 -15 -10 -15 -2 0 -4 7 -4 15 0 8 4 15 10
15 5 0 7 -7 4 -15z m-1294 -5 c0 -5 -2 -10 -4 -10 -3 0 -8 5 -11 10 -3 6 -1
10 4 10 6 0 11 -4 11 -10z m73 -23 c3 -8 0 -14 -7 -14 -7 0 -13 6 -13 14 0 7
4 13 8 13 4 0 9 -6 12 -13z m1942 -7 c3 -5 -1 -10 -9 -10 -9 0 -16 5 -16 10 0
6 4 10 9 10 6 0 13 -4 16 -10z m495 -17 c0 -3 -6 -3 -14 0 -7 3 -20 0 -27 -6
-11 -10 -11 -9 0 5 11 15 41 15 41 1z m-1756 -17 c47 -14 142 -43 213 -65 70
-23 130 -40 133 -40 3 0 43 -13 90 -30 117 -43 290 -92 301 -85 5 3 9 1 9 -5
0 -6 12 -13 28 -17 15 -3 56 -16 92 -29 59 -21 150 -50 412 -130 76 -23 89
-30 94 -52 4 -14 3 -33 -3 -42 -5 -8 -65 -33 -134 -54 -260 -82 -404 -130
-409 -136 -3 -3 -16 -6 -30 -7 -21 -1 -308 -89 -360 -111 -8 -3 -18 -6 -22 -5
-4 1 -38 -9 -75 -22 -37 -13 -108 -36 -158 -51 -49 -15 -129 -40 -177 -56 -48
-16 -95 -29 -104 -29 -9 0 -55 13 -103 29 -133 44 -292 95 -456 146 -82 25
-169 52 -192 60 -23 7 -44 11 -47 7 -3 -3 -6 0 -6 6 0 20 -45 13 -68 -11 -11
-12 -33 -48 -47 -79 -42 -92 -72 -268 -45 -268 6 0 24 -21 40 -47 45 -70 38
-136 -19 -198 l-28 -30 23 -170 c62 -450 63 -425 -9 -426 -163 -2 -253 3 -265
15 -14 14 -14 15 52 486 l13 95 -32 38 c-59 69 -57 153 5 218 34 36 38 46 42
107 8 101 65 279 105 324 8 9 11 18 6 21 -8 4 -85 28 -318 100 -55 17 -106 35
-113 40 -27 21 -6 77 32 83 18 2 279 85 301 95 11 5 29 11 40 13 11 2 90 27
175 54 85 28 201 65 258 83 56 18 102 37 102 41 0 5 4 7 9 3 5 -3 52 8 103 24
51 16 154 48 228 71 74 23 146 45 160 50 40 14 65 11 154 -14z m-704 -20 c0
-3 -4 -8 -10 -11 -5 -3 -10 -1 -10 4 0 6 5 11 10 11 6 0 10 -2 10 -4z m-643
-12 c-3 -3 -12 -4 -19 -1 -8 3 -5 6 6 6 11 1 17 -2 13 -5z m543 -14 c0 -5 -7
-7 -15 -4 -8 4 -15 8 -15 10 0 2 7 4 15 4 8 0 15 -4 15 -10z m1770 7 c0 -2
-15 -16 -32 -33 l-33 -29 29 33 c28 30 36 37 36 29z m-516 -39 c-5 -7 -9 -16
-9 -20 0 -3 -3 -9 -7 -13 -8 -8 -4 13 7 38 4 10 10 16 12 13 3 -3 1 -11 -3
-18z m1266 18 c0 -2 -7 -7 -16 -10 -8 -3 -12 -2 -9 4 6 10 25 14 25 6z m-2501
-40 c-3 -3 -11 5 -18 17 -13 21 -12 21 5 5 10 -10 16 -20 13 -22z m2451 -37
c0 -6 -4 -7 -10 -4 -5 3 -10 11 -10 16 0 6 5 7 10 4 6 -3 10 -11 10 -16z m-10
-29 c0 -5 -5 -10 -11 -10 -5 0 -7 5 -4 10 3 6 8 10 11 10 2 0 4 -4 4 -10z
m-3684 -35 c-15 -16 -26 -24 -26 -20 0 11 42 56 47 51 2 -2 -7 -16 -21 -31z
m2951 13 c-3 -8 -6 -5 -6 6 -1 11 2 17 5 13 3 -3 4 -12 1 -19z m666 7 c-3 -9
-8 -14 -10 -11 -3 3 -2 9 2 15 9 16 15 13 8 -4z m-2488 -25 c-3 -5 -12 -10
-18 -10 -7 0 -6 4 3 10 19 12 23 12 15 0z m-1048 -16 c-3 -3 -12 -4 -19 -1 -8
3 -5 6 6 6 11 1 17 -2 13 -5z m3788 -104 c-3 -5 -12 -10 -18 -10 -7 0 -6 4 3
10 19 12 23 12 15 0z m-110 -69 c-3 -6 -11 -11 -16 -11 -5 0 -4 6 3 14 14 16
24 13 13 -3z m149 -16 c-4 -8 -13 -15 -22 -15 -13 0 -12 3 4 15 24 18 25 18
18 0z m-78 -40 c-8 -8 -20 -15 -27 -15 -7 0 -4 6 7 15 25 19 40 19 20 0z m-56
-45 c0 -5 -5 -10 -11 -10 -5 0 -7 5 -4 10 3 6 8 10 11 10 2 0 4 -4 4 -10z
m-10 -130 c-6 -11 -13 -20 -16 -20 -2 0 0 9 6 20 6 11 13 20 16 20 2 0 0 -9
-6 -20z m225 10 c3 -5 2 -10 -4 -10 -5 0 -13 5 -16 10 -3 6 -2 10 4 10 5 0 13
-4 16 -10z m-415 -14 c0 -2 -7 -7 -16 -10 -8 -3 -12 -2 -9 4 6 10 25 14 25 6z
m226 -3 c-15 -4 -16 -7 -5 -14 10 -6 8 -8 -8 -6 -17 1 -19 4 -11 14 6 7 18 12
27 12 12 -1 11 -2 -3 -6z m-156 -163 c0 -5 -5 -10 -11 -10 -5 0 -7 5 -4 10 3
6 8 10 11 10 2 0 4 -4 4 -10z m170 0 c0 -5 -4 -10 -9 -10 -6 0 -13 5 -16 10
-3 6 1 10 9 10 9 0 16 -4 16 -10z m-595 -38 l-28 -27 24 31 c13 17 26 30 28
27 3 -2 -8 -16 -24 -31z m630 29 c3 -5 0 -13 -6 -17 -7 -4 -9 -3 -5 4 3 5 0
13 -6 15 -9 4 -10 6 -1 6 6 1 14 -3 18 -8z m-255 -21 c-19 -12 -30 -12 -30 -1
0 10 31 20 40 14 2 -2 -2 -8 -10 -13z m447 0 c-1 -22 -12 -26 -23 -9 -3 6 0
15 7 20 18 12 18 12 16 -11z m-712 -10 c-3 -5 -14 -10 -23 -9 -14 0 -13 2 3 9
27 11 27 11 20 0z m145 -5 c-7 -9 -15 -13 -19 -10 -3 3 1 10 9 15 21 14 24 12
10 -5z m45 -14 c3 -5 2 -12 -3 -15 -5 -3 -9 1 -9 9 0 17 3 19 12 6z m-29 -23
c3 -10 10 -18 15 -18 5 0 9 -4 9 -10 0 -5 -7 -7 -15 -4 -8 4 -15 13 -15 21 0
10 -7 14 -20 10 -11 -3 -20 -1 -20 4 0 4 -7 5 -17 2 -10 -4 -14 -2 -10 4 11
18 66 11 73 -9z m-2242 -39 c56 -17 135 -42 176 -56 99 -32 231 -73 251 -78 9
-2 58 -17 110 -35 115 -38 170 -40 269 -7 41 14 109 35 150 47 41 12 99 30
128 41 30 11 58 17 63 14 5 -4 9 -2 9 2 0 5 21 15 48 22 26 8 93 29 150 47 57
19 109 34 117 34 9 0 14 -31 19 -122 4 -68 9 -167 12 -220 6 -92 4 -100 -19
-141 -65 -110 -314 -213 -587 -243 -134 -14 -409 -6 -535 16 -197 35 -355 98
-434 172 -66 63 -74 90 -66 227 3 64 8 131 11 150 3 22 0 38 -8 43 -10 6 -10
8 0 8 8 0 12 18 12 55 0 34 4 55 11 55 7 0 57 -14 113 -31z m2336 27 c0 -11
-19 -15 -25 -6 -3 5 1 10 9 10 9 0 16 -2 16 -4z m38 -5 c10 -6 8 -10 -9 -14
-13 -4 -25 -4 -28 -2 -2 3 1 5 8 5 7 0 9 5 6 10 -8 12 5 13 23 1z m432 -6 c0
-2 -7 -5 -15 -9 -9 -3 -15 0 -15 9 0 9 6 12 15 9 8 -4 15 -7 15 -9z m-691 -31
c-14 -17 -33 -19 -23 -2 5 7 2 9 -7 6 -49 -20 -54 -21 -31 -4 14 11 30 15 43
11 16 -5 19 -4 14 5 -5 9 -4 11 4 6 9 -6 9 -11 0 -22z m102 -2 c-7 -2 -18 1
-23 6 -8 8 -4 9 13 5 13 -4 18 -8 10 -11z m74 -2 c-11 -5 -27 -9 -35 -9 -9 0
-8 4 5 9 11 5 27 9 35 9 9 0 8 -4 -5 -9z m495 -14 c0 -2 -8 -10 -17 -17 -16
-13 -17 -12 -4 4 13 16 21 21 21 13z m-585 -46 c3 -6 -1 -7 -9 -4 -18 7 -21
14 -7 14 6 0 13 -4 16 -10z m-255 -23 c11 -5 9 -6 -4 -4 -11 1 -21 9 -23 17
-3 10 -2 11 4 4 4 -6 15 -14 23 -17z m803 0 c-5 -8 -8 -7 -11 1 -3 10 -7 10
-20 0 -15 -12 -15 -11 -4 4 14 18 47 13 35 -5z m-778 -27 c-3 -5 -14 -10 -23
-9 -14 0 -13 2 3 9 27 11 27 11 20 0z m749 -16 c16 -6 12 -24 -5 -24 -6 0 -8
4 -5 9 4 5 0 12 -6 14 -7 3 -10 6 -6 6 3 1 13 -2 22 -5z m-29 -24 c-3 -5 -11
-10 -16 -10 -6 0 -7 5 -4 10 3 6 11 10 16 10 6 0 7 -4 4 -10z m-7 -77 c-6 -8
-16 -12 -22 -10 -6 3 -22 -5 -35 -17 l-24 -21 19 27 c13 19 25 25 38 22 10 -4
16 -2 13 3 -4 5 0 10 8 10 11 0 12 -4 3 -14z m-43 -303 c-3 -5 -12 -10 -18
-10 -7 0 -6 4 3 10 19 12 23 12 15 0z m-1222 -860 c-10 -11 -19 -20 -21 -20
-1 0 2 9 8 20 6 11 15 20 20 20 6 0 2 -9 -7 -20z m-173 -354 c0 -2 -8 -10 -17
-17 -16 -13 -17 -12 -4 4 13 16 21 21 21 13z m-100 -20 c0 -2 -8 -10 -17 -17
-16 -13 -17 -12 -4 4 13 16 21 21 21 13z m40 -29 c0 -2 -10 -12 -22 -23 l-23
-19 19 23 c18 21 26 27 26 19z m-10 -41 c0 -2 -8 -10 -17 -17 -16 -13 -17 -12
-4 4 13 16 21 21 21 13z m140 -39 c0 -2 -10 -12 -22 -23 l-23 -19 19 23 c18
21 26 27 26 19z m-195 -77 c-10 -11 -22 -20 -28 -20 -5 0 1 9 14 20 31 25 37
25 14 0z m165 7 c0 -2 -12 -14 -27 -28 l-28 -24 24 28 c23 25 31 32 31 24z
m-240 -71 c0 -2 -8 -10 -17 -17 -16 -13 -17 -12 -4 4 13 16 21 21 21 13z"/>
<path d="M1888 4583 c-40 -16 -52 -35 -18 -26 11 3 20 9 20 14 0 5 6 6 13 3 8
-3 20 2 27 11 15 19 6 18 -42 -2z"/>
<path d="M1390 4750 c0 -5 5 -10 10 -10 6 0 10 5 10 10 0 6 -4 10 -10 10 -5 0
-10 -4 -10 -10z"/>
<path d="M3745 4710 c-3 -5 -1 -10 4 -10 6 0 11 5 11 10 0 6 -2 10 -4 10 -3 0
-8 -4 -11 -10z"/>
<path d="M2770 5059 c0 -5 5 -7 10 -4 6 3 10 8 10 11 0 2 -4 4 -10 4 -5 0 -10
-5 -10 -11z"/>
<path d="M3170 5026 c0 -2 8 -10 18 -17 15 -13 16 -12 3 4 -13 16 -21 21 -21
13z"/>
<path d="M3300 4985 c0 -8 2 -15 4 -15 2 0 6 7 10 15 3 8 1 15 -4 15 -6 0 -10
-7 -10 -15z"/>
<path d="M2206 4973 c-6 -14 -5 -15 5 -6 7 7 10 15 7 18 -3 3 -9 -2 -12 -12z"/>
</g>
</svg>
